<?xml version="1.0" encoding="utf-8"?>
<!-- Generator: Adobe Illustrator 22.1.0, SVG Export Plug-In . SVG Version: 6.00 Build 0)  -->
<svg version="1.1" id="Layer_1" xmlns="http://www.w3.org/2000/svg" xmlns:xlink="http://www.w3.org/1999/xlink" x="0px" y="0px"
	 viewBox="0 0 1073.3 1080.6" style="enable-background:new 0 0 1073.3 1080.6;" xml:space="preserve">
<style type="text/css">
	.st0{fill:none;stroke:#FFFFFF;stroke-width:5;}
</style>
<title>star_5px</title>
<g id="Layer_2_1_">
	<g id="Layer_1-2">
		<path class="st0" d="M285.7,62.2l609,882.3"/>
		<path class="st0" d="M178.6,136.1l802.5,711"/>
		<path class="st0" d="M92.2,233.6l949.3,498.2"/>
		<path class="st0" d="M31.8,348.8l1041,256.6"/>
		<path class="st0" d="M0.6,475.2h1072.1"/>
		<path class="st0" d="M0.6,605.4l1041-256.6"/>
		<path class="st0" d="M31.8,731.8l949.3-498.2"/>
		<path class="st0" d="M92.2,847.1l802.5-711"/>
		<path class="st0" d="M178.6,944.5l609-882.3"/>
		<path class="st0" d="M285.7,1018.5L665.9,16"/>
		<path class="st0" d="M407.4,1064.6L536.7,0.3"/>
		<path class="st0" d="M536.7,1080.3L407.4,16"/>
		<path class="st0" d="M665.9,1064.6L285.7,62.2"/>
		<path class="st0" d="M787.6,1018.5l-609-882.3"/>
		<path class="st0" d="M894.8,944.5l-802.5-711"/>
		<path class="st0" d="M981.1,847.1L31.8,348.8"/>
		<path class="st0" d="M1041.6,731.8L0.6,475.2"/>
		<path class="st0" d="M1072.7,605.4H0.6"/>
		<path class="st0" d="M1072.7,475.2L31.8,731.8"/>
		<path class="st0" d="M1041.6,348.8L92.2,847.1"/>
		<path class="st0" d="M981.1,233.6l-802.5,711"/>
		<path class="st0" d="M894.8,136.1l-609,882.3"/>
		<path class="st0" d="M787.6,62.2L407.4,1064.6"/>
		<path class="st0" d="M665.9,16L536.7,1080.3"/>
		<path class="st0" d="M536.7,0.3l129.2,1064.3"/>
		<path class="st0" d="M407.4,16l380.2,1002.5"/>
	</g>
</g>
</svg>
