<svg xmlns="http://www.w3.org/2000/svg" viewBox="0 0 1080.39 1080.39"><defs><style>.cls-1{stroke:#fff;stroke-width:3px;}</style></defs><title>star_white</title><g id="Layer_2" data-name="Layer 2"><g id="Layer_1-2" data-name="Layer 1"><path class="cls-1" d="M270.2,72.54,922,922"/><path class="cls-1" d="M158.36,158.36,1007.85,810.2"/><path class="cls-1" d="M72.54,270.2,1061.79,680"/><path class="cls-1" d="M18.6,400.43,1080.2,540.2"/><path class="cls-1" d="M.2,540.2,1061.8,400.44"/><path class="cls-1" d="M18.6,680,1007.85,270.2"/><path class="cls-1" d="M72.54,810.2,922,158.36"/><path class="cls-1" d="M158.36,922,810.2,72.54"/><path class="cls-1" d="M270.2,1007.85,680,18.6"/><path class="cls-1" d="M400.43,1061.8,540.2.2"/><path class="cls-1" d="M540.2,1080.2,400.44,18.6"/><path class="cls-1" d="M680,1061.8,270.2,72.54"/><path class="cls-1" d="M810.2,1007.85,158.36,158.36"/><path class="cls-1" d="M922,922,72.54,270.19"/><path class="cls-1" d="M1007.85,810.2,18.6,400.43"/><path class="cls-1" d="M1061.8,680,.2,540.19"/><path class="cls-1" d="M1080.2,540.2,18.6,680"/><path class="cls-1" d="M1061.8,400.43,72.54,810.19"/><path class="cls-1" d="M1007.85,270.2,158.36,922"/><path class="cls-1" d="M922,158.36,270.19,1007.85"/><path class="cls-1" d="M810.2,72.54,400.43,1061.79"/><path class="cls-1" d="M680,18.6,540.19,1080.2"/><path class="cls-1" d="M540.2.2,680,1061.8"/><path class="cls-1" d="M400.43,18.6l409.76,989.25"/></g></g></svg>