<svg xmlns="http://www.w3.org/2000/svg" viewBox="0 0 1073.32 1080.61"><defs><style>.cls-1{fill:none;stroke:#ff0032;stroke-width:5px;}</style></defs><title>star_red</title><g id="Layer_2" data-name="Layer 2"><g id="Layer_1-2" data-name="Layer 1"><path class="cls-1" d="M285.71,62.16l609,882.34"/><path class="cls-1" d="M178.58,136.11,981.07,847.06"/><path class="cls-1" d="M92.25,233.55l949.32,498.24"/><path class="cls-1" d="M31.75,348.82l1041,256.57"/><path class="cls-1" d="M.6,475.21H1072.73"/><path class="cls-1" d="M.6,605.39l1041-256.57"/><path class="cls-1" d="M31.75,731.79,981.08,233.55"/><path class="cls-1" d="M92.25,847.06l802.5-710.95"/><path class="cls-1" d="M178.58,944.5l609-882.34"/><path class="cls-1" d="M285.71,1018.45,665.89,16"/><path class="cls-1" d="M407.43,1064.61,536.66.3"/><path class="cls-1" d="M536.66,1080.3,407.43,16"/><path class="cls-1" d="M665.89,1064.61,285.71,62.15"/><path class="cls-1" d="M787.61,1018.45l-609-882.34"/><path class="cls-1" d="M894.75,944.5,92.25,233.55"/><path class="cls-1" d="M981.07,847.06,31.75,348.81"/><path class="cls-1" d="M1041.57,731.79.6,475.21"/><path class="cls-1" d="M1072.73,605.39H.6"/><path class="cls-1" d="M1072.73,475.21,31.75,731.79"/><path class="cls-1" d="M1041.57,348.82,92.25,847.06"/><path class="cls-1" d="M981.07,233.55l-802.5,711"/><path class="cls-1" d="M894.75,136.11l-609,882.34"/><path class="cls-1" d="M787.61,62.16,407.43,1064.61"/><path class="cls-1" d="M665.89,16,536.66,1080.3"/><path class="cls-1" d="M536.66.3,665.89,1064.61"/><path class="cls-1" d="M407.43,16,787.61,1018.45"/></g></g></svg>