<svg xmlns="http://www.w3.org/2000/svg" viewBox="0 0 1072.61 1080.24"><defs><style>.cls-1{fill:none;stroke:#fff;stroke-width:2px;}</style></defs><title>star</title><g id="Layer_2" data-name="Layer 2"><g id="Layer_1-2" data-name="Layer 1"><path class="cls-1" d="M285.35,62l609,882.34"/><path class="cls-1" d="M178.22,135.93l802.5,711"/><path class="cls-1" d="M91.89,233.37l949.32,498.24"/><path class="cls-1" d="M31.39,348.64l1041,256.57"/><path class="cls-1" d="M.24,475H1072.37"/><path class="cls-1" d="M.24,605.21l1041-256.57"/><path class="cls-1" d="M31.39,731.61,980.72,233.37"/><path class="cls-1" d="M91.89,846.88l802.5-710.95"/><path class="cls-1" d="M178.22,944.32,787.26,62"/><path class="cls-1" d="M285.35,1018.27,665.53,15.81"/><path class="cls-1" d="M407.07,1064.43,536.3.12"/><path class="cls-1" d="M536.3,1080.12,407.07,15.81"/><path class="cls-1" d="M665.53,1064.43,285.35,62"/><path class="cls-1" d="M787.25,1018.27l-609-882.35"/><path class="cls-1" d="M894.39,944.32,91.89,233.37"/><path class="cls-1" d="M980.71,846.88,31.39,348.63"/><path class="cls-1" d="M1041.21,731.61.24,475"/><path class="cls-1" d="M1072.37,605.21H.24"/><path class="cls-1" d="M1072.37,475,31.39,731.61"/><path class="cls-1" d="M1041.21,348.64,91.89,846.88"/><path class="cls-1" d="M980.71,233.37l-802.49,711"/><path class="cls-1" d="M894.39,135.93l-609,882.34"/><path class="cls-1" d="M787.25,62,407.07,1064.43"/><path class="cls-1" d="M665.53,15.81,536.3,1080.12"/><path class="cls-1" d="M536.3.12,665.53,1064.43"/><path class="cls-1" d="M407.07,15.81,787.25,1018.27"/></g></g></svg>